<?xml version="1.0" encoding="iso-8859-1"?>
<!-- Generator: Adobe Illustrator 19.0.0, SVG Export Plug-In . SVG Version: 6.00 Build 0)  -->
<svg version="1.1" id="Capa_1" xmlns="http://www.w3.org/2000/svg" xmlns:xlink="http://www.w3.org/1999/xlink" x="0px" y="0px"
	 viewBox="0 0 464.009 464.009" style="enable-background:new 0 0 464.009 464.009;" xml:space="preserve">
<path style="fill:#744630;" d="M80.005,168.003h96v48h-96V168.003z"/>
<path style="fill:#5B3726;" d="M80.005,176.003h96v16h-96V176.003z"/>
<g>
	<path style="fill:#804D35;" d="M56.005,136.003h144c8.837,0,16,7.163,16,16v8c0,8.837-7.163,16-16,16h-144c-8.837,0-16-7.163-16-16
		v-8C40.005,143.167,47.168,136.003,56.005,136.003z"/>
	<path style="fill:#804D35;" d="M64.005,208.003h128c22.091,0,40,17.909,40,40v192c0,13.255-10.745,24-24,24l0,0h-160
		c-13.255,0-24-10.745-24-24l0,0v-192C24.005,225.912,41.913,208.003,64.005,208.003z"/>
</g>
<path style="fill:#F0F0F0;" d="M24.005,272.003h144v144h-144V272.003z"/>
<path style="fill:#6F9935;" d="M136.005,328.003h-24v-24h-32v24h-24v32h24v24h32v-24h24V328.003z"/>
<path style="fill:#744630;" d="M25.477,448.003c4.095,9.869,13.821,16.22,24.504,16h174.024v-16H25.477z"/>
<path style="fill:#DBDBDB;" d="M296.005,176.003h128c8.837,0,16,7.163,16,16v256c0,8.837-7.163,16-16,16h-128
	c-8.837,0-16-7.163-16-16v-256C280.005,183.167,287.168,176.003,296.005,176.003z"/>
<g>
	<path style="fill:#B9B9B9;" d="M200.005,312.003h128v152h-128V312.003z"/>
	<path style="fill:#B9B9B9;" d="M280.005,448.003h160l0,0c0,8.837-7.163,16-16,16h-144l0,0V448.003L280.005,448.003z"/>
</g>
<circle style="fill:#F4CA62;" cx="328.005" cy="416.003" r="16"/>
<path style="fill:#ECC45F;" d="M312.005,416.003c0,8.837,7.163,16,16,16v-32C319.168,400.003,312.005,407.167,312.005,416.003z"/>
<circle style="fill:#F4CA62;" cx="328.005" cy="352.003" r="16"/>
<path style="fill:#ECC45F;" d="M312.005,352.003c0,8.837,7.163,16,16,16v-32C319.168,336.003,312.005,343.167,312.005,352.003z"/>
<circle style="fill:#F9E0A0;" cx="88.005" cy="28.011" r="28"/>
<path style="fill:#F4CA62;" d="M75.141,3.139c-13.734,7.107-19.107,24.002-12,37.736c0,0,0,0,0,0l49.744-25.728
	C105.783,1.411,88.89-3.969,75.153,3.133C75.149,3.135,75.145,3.137,75.141,3.139z"/>
<path style="fill:#3B869E;" d="M200.005,312.003h112v152h-112V312.003z"/>
<path style="fill:#1F6C8C;" d="M200.005,448.003h112v16h-112V448.003z"/>
<path style="fill:#B3E4E8;" d="M200.005,296.003h112v48h-112V296.003z"/>
<path style="fill:#F7E4BA;" d="M200.005,376.003h72v56h-72V376.003z"/>
<g>
	<circle style="fill:#F4CA62;" cx="392.005" cy="416.003" r="16"/>
	<circle style="fill:#F4CA62;" cx="328.005" cy="224.003" r="16"/>
	<circle style="fill:#F4CA62;" cx="328.005" cy="288.003" r="16"/>
	<circle style="fill:#F4CA62;" cx="392.005" cy="224.003" r="16"/>
	<circle style="fill:#F4CA62;" cx="392.005" cy="288.003" r="16"/>
	<circle style="fill:#F4CA62;" cx="392.005" cy="352.003" r="16"/>
</g>
<path style="fill:#C7463B;" d="M159.958,64.056l48.083-48.083c8.81-8.81,23.095-8.81,31.905,0l0.096,0.096
	c8.81,8.81,8.81,23.095,0,31.905l-48.083,48.083c-8.81,8.81-23.095,8.81-31.905,0l-0.096-0.096
	C151.148,87.151,151.148,72.866,159.958,64.056z"/>
<path style="fill:#EBEBEB;" d="M240.053,16.051l-0.096-0.096c-8.81-8.81-23.094-8.81-31.904,0l-24.048,24.048l32,32l24.048-24.048
	C248.862,39.145,248.862,24.862,240.053,16.051z"/>
<g>
</g>
<g>
</g>
<g>
</g>
<g>
</g>
<g>
</g>
<g>
</g>
<g>
</g>
<g>
</g>
<g>
</g>
<g>
</g>
<g>
</g>
<g>
</g>
<g>
</g>
<g>
</g>
<g>
</g>
</svg>
