<?xml version="1.0" standalone="no"?>
<!DOCTYPE svg PUBLIC "-//W3C//DTD SVG 20010904//EN"
 "http://www.w3.org/TR/2001/REC-SVG-20010904/DTD/svg10.dtd">
<svg version="1.0" xmlns="http://www.w3.org/2000/svg"
 width="356.000000pt" height="613.000000pt" viewBox="0 0 356.000000 613.000000"
 preserveAspectRatio="xMidYMid meet">

<g transform="translate(0.000000,613.000000) scale(0.100000,-0.100000)"
fill="#000000" stroke="none">
<path d="M1565 6109 c-397 -5 -379 -5 179 -4 625 2 866 -3 776 -16 -26 -3 9
-6 85 -6 89 0 114 2 80 7 -47 6 -45 7 35 11 118 5 234 0 238 -11 2 -6 21 -10
43 -10 21 0 39 -4 39 -10 0 -6 62 -10 163 -11 89 -1 154 -3 145 -6 -13 -3 -18
-15 -18 -44 0 -35 -3 -39 -25 -39 -25 0 -25 -1 -25 -80 0 -64 -3 -80 -15 -80
-11 0 -15 -11 -15 -40 0 -29 4 -40 15 -40 8 0 15 -6 15 -14 0 -12 -52 -14
-317 -12 -245 1 -317 -2 -320 -11 -3 -8 -21 -13 -44 -13 -28 0 -39 -4 -39 -15
0 -9 -9 -15 -23 -15 -29 0 -57 -29 -57 -58 0 -16 -6 -22 -23 -22 -29 0 -57
-29 -57 -58 0 -17 -6 -22 -25 -22 -22 0 -25 -4 -25 -40 0 -29 -4 -40 -15 -40
-12 0 -15 -16 -15 -80 0 -79 0 -80 -25 -80 -14 0 -25 -4 -25 -9 0 -5 11 -18
25 -29 14 -11 25 -30 25 -42 0 -12 7 -28 15 -36 10 -10 15 -35 15 -70 0 -30 5
-54 10 -54 6 0 10 -33 10 -80 0 -79 0 -80 -25 -80 -16 0 -25 -6 -25 -15 0 -12
-16 -15 -80 -15 l-80 0 0 30 c0 28 -2 30 -40 30 -22 0 -40 5 -40 10 0 6 -18
10 -40 10 -38 0 -40 2 -40 30 0 28 -3 30 -36 30 -27 0 -41 7 -56 25 -11 14
-30 25 -44 25 -15 0 -24 6 -24 15 0 11 -11 15 -40 15 -36 0 -40 3 -40 25 0 23
-4 25 -40 25 l-40 0 0 40 0 40 -95 0 -95 0 0 38 c0 39 29 97 30 60 0 -10 7
-18 15 -18 11 0 15 12 15 45 0 32 6 51 20 65 22 22 40 26 40 9 0 -8 5 -7 15 1
9 7 12 16 8 19 -22 16 -6 32 57 56 39 15 70 31 70 36 0 5 18 9 40 9 22 0 40
-4 40 -10 0 -5 18 -10 40 -10 22 0 40 5 40 10 0 6 18 10 40 10 29 0 40 -4 40
-15 0 -11 11 -15 40 -15 36 0 40 -2 40 -25 0 -22 4 -25 40 -25 l40 0 0 -40 c0
-23 5 -40 11 -40 6 0 20 -11 31 -25 11 -14 24 -25 29 -25 5 0 9 29 9 65 l0 65
-40 0 -40 0 0 40 0 40 -40 0 -40 0 0 40 0 40 -40 0 c-22 0 -40 4 -40 9 0 18
-62 71 -83 71 -12 0 -28 9 -35 20 -7 12 -18 18 -24 14 -7 -4 -8 -3 -4 4 4 7 1
12 -8 12 -10 0 -13 6 -9 16 4 10 1 15 -8 14 -33 -5 -39 1 -39 40 0 28 -4 40
-14 40 -8 0 -16 -7 -18 -17 -3 -15 -4 -15 -17 0 -12 15 -11 17 3 17 9 0 16 7
16 15 0 11 -11 15 -40 15 -22 0 -40 5 -40 10 0 6 -18 10 -40 10 -31 0 -40 4
-41 18 0 10 -3 12 -6 5 -2 -7 -20 -13 -39 -13 -30 0 -34 3 -34 25 0 25 -1 25
-84 25 -62 0 -87 -4 -96 -15 -7 -8 -21 -15 -32 -15 -11 0 -16 -4 -13 -11 4 -6
-2 -5 -13 2 -17 10 -23 10 -37 -4 -20 -21 -45 -22 -45 -2 0 22 -23 18 -38 -5
-9 -14 -9 -20 -1 -20 8 0 8 -4 0 -14 -6 -8 -10 -19 -9 -26 2 -7 -5 -14 -14
-15 -15 -3 -17 2 -12 22 9 35 -15 26 -36 -13 -9 -16 -29 -35 -44 -42 -15 -8
-31 -24 -36 -37 -5 -14 -18 -30 -30 -37 -11 -7 -20 -23 -20 -36 0 -13 -12 -34
-27 -47 -19 -17 -24 -27 -17 -32 13 -9 -11 -83 -27 -83 -12 0 -12 -77 0 -82
13 -5 20 -99 7 -103 -37 -11 -119 -11 -130 1 -8 7 -26 16 -42 20 -16 4 -37 18
-47 31 -17 22 -55 34 -42 14 6 -10 -90 21 -102 32 -3 4 -19 7 -35 7 -17 0 -27
5 -25 13 1 7 -12 13 -36 15 -28 2 -37 0 -37 -12 0 -9 -8 -16 -19 -16 -10 0
-21 -6 -24 -14 -3 -8 -18 -14 -34 -14 -16 1 -38 -4 -50 -11 -12 -6 -31 -11
-42 -11 -12 0 -29 -9 -38 -20 -12 -13 -24 -18 -40 -14 -15 4 -31 0 -42 -10
-10 -9 -25 -14 -35 -10 -9 3 -16 2 -16 -4 0 -5 -13 -15 -30 -22 -30 -12 -41
-30 -19 -30 8 0 8 -4 0 -14 -8 -9 -11 -94 -9 -287 l3 -274 35 -3 c19 -2 49
-14 67 -28 17 -13 36 -24 42 -24 6 0 11 -5 11 -11 0 -6 11 -20 25 -31 14 -11
25 -26 25 -34 0 -8 6 -14 13 -14 14 0 56 -61 60 -87 3 -16 27 -75 46 -113 9
-17 71 -27 71 -11 0 6 6 11 13 11 21 0 67 24 67 35 0 13 115 34 195 36 57 1
192 -16 225 -29 27 -10 30 -11 201 -52 69 -16 138 -30 152 -30 15 0 27 -4 27
-9 0 -5 13 -11 30 -14 45 -10 37 -46 -16 -72 -22 -11 -65 -42 -94 -67 -41 -36
-57 -45 -67 -36 -9 7 -13 7 -13 -1 0 -8 -69 -11 -240 -11 -200 0 -240 -2 -240
-14 0 -8 -6 -16 -12 -19 -7 -2 11 -2 39 1 l53 5 0 -42 c0 -23 -5 -41 -11 -41
-6 0 -20 -12 -32 -26 -20 -25 -23 -26 -106 -22 -52 3 -86 9 -89 16 -2 7 -19
12 -37 12 -19 0 -37 5 -40 10 -16 26 -145 -1 -213 -44 -23 -14 -43 -26 -46
-26 -11 0 -66 -56 -66 -67 0 -7 -6 -13 -14 -13 -7 0 -25 -15 -40 -34 l-26 -35
0 -1205 c0 -1199 0 -1206 20 -1206 11 0 20 4 20 8 0 12 34 11 41 -1 4 -5 16
-3 30 6 13 9 48 23 76 32 29 10 53 21 53 26 0 5 8 9 18 9 10 0 28 7 40 16 20
14 22 14 22 0 0 -9 4 -16 10 -16 5 0 7 7 3 15 -3 9 -2 15 3 13 5 -1 19 3 30
10 12 6 24 8 28 5 3 -3 6 -1 6 5 0 7 3 11 8 11 19 -3 33 2 27 11 -3 5 3 10 15
10 12 0 34 6 49 14 15 8 42 14 60 14 18 -1 36 4 40 11 4 7 21 13 37 15 16 2
33 4 37 5 5 0 6 4 3 9 -2 4 24 9 60 10 40 2 64 -1 64 -7 0 -6 7 -11 16 -11 8
0 12 5 9 10 -4 6 11 10 37 10 28 0 38 -3 29 -9 -10 -6 -5 -11 20 -17 19 -5 39
-9 46 -9 11 0 67 -56 66 -65 -1 -3 2 -4 6 -3 4 1 23 -22 42 -52 19 -30 42 -57
51 -60 10 -4 21 -21 26 -38 4 -18 18 -36 30 -42 12 -5 22 -18 22 -27 0 -11 7
-18 18 -18 13 0 14 2 4 9 -9 5 5 10 40 14 78 8 109 14 143 27 17 7 41 14 55
16 46 9 60 15 60 30 0 8 3 14 8 15 74 6 224 47 217 59 -2 3 17 7 42 9 25 1 55
9 67 17 28 18 125 31 199 26 20 -2 27 -7 27 -22 0 -11 3 -19 8 -19 34 6 72 -3
72 -16 0 -8 6 -15 13 -15 8 0 22 -9 32 -20 11 -12 26 -18 35 -15 11 4 23 -3
33 -19 12 -17 33 -28 72 -37 33 -7 55 -17 55 -26 0 -7 5 -13 10 -13 6 0 10 9
10 20 0 11 5 20 11 20 5 0 9 8 8 18 -1 9 3 35 10 58 11 32 11 46 1 64 -10 18
-9 21 1 15 9 -6 11 -3 6 8 -4 11 -2 14 8 11 24 -10 45 22 45 65 0 23 5 41 10
41 6 0 10 22 10 49 0 41 -4 53 -25 69 -14 11 -25 30 -25 42 0 12 -11 31 -25
42 -14 11 -25 25 -25 31 -1 28 -39 57 -74 57 -34 0 -36 2 -36 35 0 27 3 33 16
28 11 -4 12 -8 4 -13 -8 -5 -7 -9 4 -13 9 -4 16 -2 16 3 0 6 9 10 20 10 16 0
20 7 20 30 0 25 -4 30 -25 30 -22 0 -25 4 -25 40 0 29 -4 40 -15 40 -9 0 -15
-9 -15 -25 0 -22 -4 -25 -40 -25 l-40 0 0 -40 0 -40 -40 0 c-22 0 -40 -4 -40
-8 0 -5 12 -8 28 -7 27 2 52 -10 52 -26 0 -5 -7 -9 -15 -9 -8 0 -15 5 -15 10
0 6 -11 10 -25 10 -14 0 -25 -4 -25 -9 0 -5 -9 -11 -19 -14 -13 -3 -18 -1 -14
9 5 14 -38 16 -48 2 -3 -5 -36 -4 -74 2 -70 11 -133 7 -195 -13 -19 -6 -37
-12 -40 -12 -22 -4 -78 -30 -75 -35 2 -3 -8 -7 -22 -8 -14 -1 -31 -7 -38 -12
-7 -5 -34 -12 -61 -16 -79 -9 -134 -25 -134 -40 0 -13 -30 -19 -73 -14 -10 1
-24 -3 -31 -10 -13 -10 -109 -39 -151 -45 -11 -2 -22 -4 -25 -5 -3 -1 -9 -3
-15 -4 -22 -4 -45 -19 -40 -25 6 -10 -8 -12 -85 -14 -58 -2 -65 0 -76 21 -6
13 -26 32 -43 43 -17 10 -30 22 -29 26 5 17 -36 125 -51 136 -10 7 -25 29 -34
50 -10 20 -21 37 -25 37 -4 0 -18 23 -32 51 -14 28 -31 54 -38 56 -6 3 -12 11
-12 19 0 8 -15 23 -33 34 -17 11 -26 20 -19 20 8 0 12 16 12 45 0 28 4 45 12
45 9 0 9 3 0 12 -7 7 -12 30 -12 53 0 22 -7 49 -15 59 -20 26 -19 51 2 87 17
28 63 42 63 19 0 -6 11 -16 25 -22 14 -6 25 -19 25 -30 0 -10 5 -18 10 -18 6
0 10 -17 10 -38 0 -68 13 -75 118 -67 60 5 90 11 85 18 -3 5 -1 7 5 3 6 -3 28
0 49 8 21 7 58 19 83 26 72 20 101 34 96 46 -3 7 3 10 15 7 11 -3 28 2 38 11
11 10 43 24 71 31 29 8 58 19 63 24 6 6 26 11 45 11 24 0 40 7 54 25 11 14 28
25 38 25 25 0 50 10 50 21 0 5 -11 9 -25 9 -20 0 -25 5 -25 25 0 23 -4 25 -40
25 -38 0 -40 2 -40 30 0 28 -2 30 -40 30 -22 0 -40 5 -40 10 0 6 -18 10 -39
10 -33 0 -40 4 -45 25 -7 28 9 101 24 110 6 3 10 15 10 26 0 11 16 35 35 53
19 19 35 37 35 42 0 5 15 19 33 32 27 18 47 22 110 22 42 0 77 -3 77 -7 0 -5
17 -9 37 -10 21 -1 39 -7 41 -12 2 -6 15 -11 28 -11 21 0 24 4 24 40 0 22 -4
40 -10 40 -5 0 -10 18 -10 40 0 22 5 41 10 41 6 1 14 2 19 3 5 0 12 4 16 7 3
4 -30 10 -74 14 -76 7 -81 8 -81 30 0 21 -6 24 -42 28 -24 2 15 4 86 5 71 1
127 4 125 6 -10 10 -779 18 -779 8 0 -24 -86 -116 -142 -152 -161 -105 -364
-84 -515 53 -44 40 -52 45 -35 20 27 -38 27 -43 2 -36 -11 3 -17 10 -14 17 6
12 -13 -11 -35 -42 -18 -25 -51 -17 -51 12 0 12 7 32 16 44 8 12 12 27 9 32
-4 6 -8 25 -10 43 -2 18 -6 45 -10 61 -6 20 -5 27 3 22 8 -4 9 20 5 81 -6 104
9 169 62 259 44 73 91 116 174 157 62 30 72 32 176 32 102 0 115 -2 175 -31
80 -38 128 -78 170 -144 l32 -50 767 0 c503 0 761 4 751 10 -13 9 -11 13 10
30 14 11 31 20 38 20 7 0 30 16 50 35 41 38 140 116 214 167 26 18 48 39 48
46 0 6 7 12 15 12 8 0 52 25 99 55 46 30 90 55 98 55 7 0 31 7 53 15 77 27
188 13 290 -37 76 -37 85 -42 85 -50 0 -4 9 -12 20 -18 20 -11 20 -8 20 1074
l0 1085 -62 4 -63 3 65 4 c36 3 -56 7 -205 10 l-270 5 268 3 c147 1 267 6 267
10 0 9 -1321 10 -1995 1z m1955 -99 c0 -29 -4 -40 -15 -40 -11 0 -15 11 -15
40 0 29 4 40 15 40 11 0 15 -11 15 -40z m-1780 -230 c0 -5 -2 -10 -4 -10 -3 0
-8 5 -11 10 -3 6 -1 10 4 10 6 0 11 -4 11 -10z m440 -1185 c46 -17 193 -53
250 -61 25 -3 47 -10 50 -15 3 -5 33 -11 65 -13 33 -2 74 -10 90 -16 17 -6 50
-16 75 -21 25 -6 63 -14 85 -19 22 -5 60 -13 85 -19 50 -11 100 -32 145 -61
17 -11 35 -22 42 -26 6 -3 29 -32 52 -64 32 -45 42 -69 44 -109 3 -39 1 -51
-10 -51 -7 0 -18 10 -23 23 -5 12 -9 16 -9 8 -1 -8 -18 -31 -40 -52 -21 -21
-36 -41 -33 -44 3 -3 -2 -5 -11 -5 -10 0 -25 -4 -35 -9 -33 -17 -118 -26 -206
-21 -87 5 -90 6 -106 34 -14 26 -43 50 -87 72 -7 3 -13 24 -13 45 0 28 -4 39
-15 39 -9 0 -15 9 -15 25 0 23 -4 25 -40 25 -29 0 -40 4 -40 15 0 11 -11 15
-40 15 -29 0 -40 4 -40 15 0 12 -16 15 -80 15 -47 0 -80 4 -80 10 0 6 -18 10
-40 10 -29 0 -40 4 -40 15 0 13 -21 15 -130 15 -80 0 -130 4 -130 10 0 6 5 10
10 10 6 0 10 9 10 21 0 11 -4 17 -10 14 -5 -3 -10 0 -10 9 0 8 -6 16 -12 19
-9 3 -6 11 10 24 12 11 22 28 22 37 0 9 6 16 14 16 15 0 49 47 49 67 0 7 7 13
14 13 8 0 11 -4 8 -10 -8 -13 8 -13 21 -1 23 22 91 21 154 -4z m380 -410 c0
-29 -7 -31 -32 -8 -25 22 -23 33 7 33 20 0 25 -5 25 -25z m580 -95 c0 -5 -4
-10 -10 -10 -5 0 -10 5 -10 10 0 6 5 10 10 10 6 0 10 -4 10 -10z m-2076 -45
c-4 -8 -10 -15 -14 -15 -4 0 -10 7 -14 15 -4 10 1 15 14 15 13 0 18 -5 14 -15z
m-397 -151 c-3 -3 -12 -4 -19 -1 -8 3 -5 6 6 6 11 1 17 -2 13 -5z m1766 -130
c15 -25 27 -49 27 -55 0 -15 -20 -10 -26 6 -4 8 -13 15 -22 15 -13 0 -11 -4 6
-16 12 -8 22 -21 22 -29 0 -23 -28 -44 -51 -38 -18 5 -20 10 -13 42 5 20 8 55
8 79 0 23 5 42 11 42 5 0 22 -21 38 -46z m-1173 -584 c0 -5 -9 -10 -20 -10
-11 0 -20 5 -20 10 0 6 9 10 20 10 11 0 20 -4 20 -10z m-63 -42 c-3 -7 -5 -2
-5 12 0 14 2 19 5 13 2 -7 2 -19 0 -25z m83 17 c0 -10 -10 -15 -27 -15 -27 1
-27 1 -9 15 25 19 36 19 36 0z m400 -81 c0 -14 -3 -14 -15 -4 -8 7 -15 14 -15
16 0 2 7 4 15 4 8 0 15 -7 15 -16z m-133 -70 c-3 -3 -12 -4 -19 -1 -8 3 -5 6
6 6 11 1 17 -2 13 -5z m773 -1244 c0 -16 5 -30 10 -30 6 0 10 9 10 20 0 11 5
20 10 20 6 0 10 -4 10 -9 0 -5 10 -12 23 -16 21 -7 20 -8 -8 -14 l-30 -7 25
-14 c14 -8 28 -13 31 -12 4 0 9 -8 12 -18 3 -11 1 -18 -4 -14 -5 3 -9 0 -9 -7
0 -7 8 -9 21 -6 17 4 19 3 10 -6 -6 -6 -11 -26 -11 -44 0 -18 -4 -33 -10 -33
-5 0 -10 -6 -10 -13 0 -16 -56 -41 -103 -44 -41 -3 -101 22 -92 37 4 6 -5 14
-20 20 -25 10 -26 11 -23 102 2 55 7 92 13 92 6 -1 18 4 27 10 10 7 40 13 68
15 50 2 50 2 50 -29z m167 -242 c-2 -13 -4 -5 -4 17 -1 22 1 32 4 23 2 -10 2
-28 0 -40z m-170 -24 c-3 -3 -12 -4 -19 -1 -8 3 -5 6 6 6 11 1 17 -2 13 -5z"/>
<path d="M2402 1615 c0 -16 2 -22 5 -12 2 9 2 23 0 30 -3 6 -5 -1 -5 -18z"/>
<path d="M658 6103 c12 -2 32 -2 45 0 12 2 2 4 -23 4 -25 0 -35 -2 -22 -4z"/>
<path d="M2805 6095 c23 -8 83 -10 79 -3 -3 4 -24 8 -47 7 -23 0 -37 -2 -32
-4z"/>
<path d="M1760 6080 c0 -6 -62 -11 -162 -12 l-163 -2 155 -3 c85 -2 161 0 170
3 8 4 45 8 82 8 36 1 70 4 74 9 4 4 -29 7 -74 7 -48 0 -82 -4 -82 -10z"/>
<path d="M2150 6080 c91 -6 87 -6 -70 -10 l-165 -4 155 -3 c85 -2 161 -1 170
3 8 4 46 9 85 11 127 8 81 13 -96 11 -151 -2 -162 -3 -79 -8z"/>
<path d="M818 6063 c56 -2 148 -2 205 0 56 1 10 3 -103 3 -113 0 -159 -2 -102
-3z"/>
<path d="M2438 6063 c67 -2 177 -2 245 0 67 1 12 3 -123 3 -135 0 -190 -2
-122 -3z"/>
<path d="M2898 6063 c12 -2 32 -2 45 0 12 2 2 4 -23 4 -25 0 -35 -2 -22 -4z"/>
<path d="M3170 5930 c0 -29 4 -40 15 -40 11 0 15 11 15 40 0 29 -4 40 -15 40
-11 0 -15 -11 -15 -40z"/>
<path d="M2401 5623 c-1 -36 19 -44 45 -19 22 22 17 46 -8 46 -14 0 -18 -3
-12 -8 9 -5 8 -10 -1 -19 -11 -10 -15 -8 -18 10 -3 16 -5 13 -6 -10z"/>
<path d="M320 4300 c0 -5 5 -10 10 -10 6 0 10 5 10 10 0 6 -4 10 -10 10 -5 0
-10 -4 -10 -10z"/>
<path d="M80 4060 c0 -5 18 -10 40 -10 22 0 40 5 40 10 0 6 -18 10 -40 10 -22
0 -40 -4 -40 -10z"/>
<path d="M610 3991 c0 -11 -6 -22 -12 -24 -7 -3 -1 -6 15 -6 22 -1 27 3 27 24
0 16 -6 25 -15 25 -8 0 -15 -9 -15 -19z"/>
<path d="M0 3814 c0 -9 5 -14 12 -12 18 6 21 28 4 28 -9 0 -16 -7 -16 -16z"/>
<path d="M560 3681 c-59 -13 -105 -37 -145 -76 -55 -56 -75 -106 -75 -196 0
-65 4 -85 31 -138 36 -71 93 -120 173 -147 60 -20 176 -15 224 10 31 16 43 11
21 -11 -7 -7 -7 -13 -1 -17 10 -6 72 84 72 104 0 14 -13 13 -77 -6 -38 -11
-53 -20 -49 -29 12 -31 -152 -32 -212 -1 -108 56 -165 173 -141 287 39 181
268 249 387 113 39 -43 68 -123 58 -156 -3 -7 -7 -25 -10 -40 -7 -33 -62 -98
-82 -98 -11 0 -13 8 -9 33 15 77 -41 134 -106 110 l-28 -11 -3 62 c-3 53 -5
61 -23 61 -19 0 -20 -7 -20 -155 0 -148 1 -155 20 -155 18 0 21 8 25 67 6 74
16 91 51 86 22 -3 24 -8 29 -78 4 -66 7 -75 26 -78 33 -5 115 58 141 107 27
52 31 151 9 205 -43 104 -173 170 -286 147z"/>
<path d="M2573 3573 c9 -2 23 -2 30 0 6 3 -1 5 -18 5 -16 0 -22 -2 -12 -5z"/>
<path d="M3511 3559 c-18 -11 -31 -22 -28 -25 2 -3 22 6 42 21 45 30 34 34
-14 4z"/>
<path d="M3520 3525 c-14 -8 -33 -14 -42 -15 -10 0 -18 -4 -18 -10 0 -5 -7
-10 -15 -10 -8 0 -15 -6 -15 -14 0 -20 -27 -40 -32 -24 -3 7 -3 -14 0 -48 5
-74 -19 -128 -75 -171 l-36 -28 -501 -6 c-276 -3 -502 -6 -504 -7 -2 -1 -1 -6
2 -11 10 -15 -33 -59 -64 -66 -31 -7 -42 -25 -15 -25 18 0 18 0 0 -43 -8 -19
-11 -37 -8 -40 3 -4 1 -12 -5 -19 -5 -7 -13 -39 -16 -71 -9 -80 -1 -87 114
-101 114 -13 335 -89 348 -118 2 -5 7 -8 12 -8 8 0 100 -89 100 -98 0 -3 11
-20 25 -38 14 -18 25 -36 25 -41 1 -21 39 -51 73 -57 26 -5 37 -4 33 3 -9 13
21 29 83 42 28 6 51 15 51 20 0 5 9 9 20 9 11 0 20 4 20 9 0 13 150 45 208 44
66 -2 152 -23 152 -38 0 -14 35 -45 73 -64 15 -8 27 -18 27 -23 0 -4 5 -8 10
-8 7 0 10 188 10 545 0 300 -3 545 -7 545 -5 -1 -19 -7 -33 -15z"/>
<path d="M2300 3405 c0 -87 3 -105 15 -105 12 0 15 18 15 105 0 87 -3 105 -15
105 -12 0 -15 -18 -15 -105z"/>
<path d="M2520 3411 c0 -60 4 -102 11 -106 16 -11 23 2 29 53 4 39 9 48 27 50
20 3 22 -2 25 -50 2 -39 7 -53 18 -53 22 0 26 80 5 111 -17 26 -44 31 -63 12
-7 -7 -12 -8 -13 -2 0 5 -1 25 -2 44 -2 24 -7 36 -19 38 -16 3 -18 -7 -18 -97z"/>
<path d="M1698 3483 c-3 -16 -3 -81 1 -155 1 -18 7 -28 16 -28 11 0 15 12 15
45 l0 45 45 0 45 0 0 -45 c0 -33 4 -45 15 -45 20 0 26 32 23 120 -2 59 -6 75
-18 75 -10 0 -16 -12 -18 -37 -3 -38 -4 -38 -48 -38 l-44 0 0 40 c0 41 -24 58
-32 23z"/>
<path d="M3405 3480 c-3 -5 -1 -10 4 -10 6 0 11 5 11 10 0 6 -2 10 -4 10 -3 0
-8 -4 -11 -10z"/>
<path d="M2409 3465 c-1 -3 -2 -10 -3 -15 0 -6 -8 -15 -16 -20 -12 -8 -13 -11
-1 -19 7 -5 15 -27 16 -49 4 -52 10 -62 41 -62 27 0 32 15 9 24 -10 3 -15 19
-15 46 0 29 4 40 15 40 8 0 15 5 15 10 0 6 -7 10 -15 10 -8 0 -15 9 -15 20 0
17 -27 30 -31 15z"/>
<path d="M942 3420 c-45 -42 -15 -120 46 -120 31 0 71 24 60 36 -5 4 -18 3
-30 -2 -28 -13 -55 -7 -62 12 -4 11 5 14 44 14 46 0 50 2 50 24 0 53 -66 75
-108 36z m62 -6 c30 -12 18 -34 -19 -34 -40 0 -41 2 -19 24 18 18 17 18 38 10z"/>
<path d="M1130 3418 c-45 -49 -8 -125 56 -115 37 6 46 -10 19 -33 -11 -9 -22
-9 -46 -1 -35 12 -44 9 -36 -12 11 -30 99 -26 119 6 11 17 10 177 -1 177 -5 0
-11 -6 -14 -12 -4 -10 -7 -10 -18 0 -20 19 -56 14 -79 -10z m88 -43 c4 -35
-21 -59 -48 -45 -43 23 -29 84 18 78 22 -2 28 -9 30 -33z"/>
<path d="M1337 3429 c-24 -14 -12 -30 16 -20 27 10 47 4 47 -15 0 -8 -10 -14
-26 -14 -53 0 -82 -38 -52 -68 15 -15 65 -16 74 -1 5 8 9 8 14 -1 17 -27 31 2
26 53 -6 69 -47 96 -99 66z m63 -83 c0 -17 -24 -28 -45 -20 -29 12 -14 34 22
34 13 0 23 -6 23 -14z"/>
<path d="M1507 3433 c-4 -3 -7 -35 -7 -70 0 -49 3 -63 15 -63 11 0 15 11 15
38 0 84 57 99 62 16 5 -73 28 -70 28 4 0 73 -16 92 -61 75 -16 -6 -29 -7 -29
-2 0 11 -14 12 -23 2z"/>
<path d="M1945 3415 c-30 -30 -31 -54 -4 -89 23 -29 64 -35 95 -12 25 19 11
32 -20 18 -19 -8 -29 -7 -47 6 -24 17 -24 17 31 22 48 4 55 7 52 25 -10 55
-66 71 -107 30z m75 -21 c0 -10 -12 -14 -37 -14 l-38 1 23 19 c24 20 52 17 52
-6z"/>
<path d="M2133 3433 c-14 -5 -18 -33 -5 -33 4 0 14 4 21 9 9 6 22 6 33 0 28
-15 21 -29 -16 -29 -39 0 -59 -19 -54 -52 4 -27 50 -37 74 -17 10 8 14 8 14 0
0 -6 7 -11 15 -11 22 0 21 103 -1 124 -15 15 -55 20 -81 9z m65 -85 c-7 -21
-36 -34 -49 -21 -6 6 -8 16 -5 22 10 15 59 14 54 -1z"/>
<path d="M2730 3420 c-45 -45 -10 -124 52 -118 17 2 34 9 36 17 3 10 -1 12
-16 9 -11 -3 -30 1 -41 9 -41 28 -15 81 34 69 18 -5 25 -2 25 8 0 31 -61 35
-90 6z"/>
<path d="M2897 3429 c-24 -14 -12 -30 16 -20 27 10 47 4 47 -15 0 -8 -10 -14
-26 -14 -53 0 -82 -38 -52 -68 15 -15 65 -16 74 -1 4 8 9 7 15 -2 14 -23 23
-1 20 54 -3 70 -41 97 -94 66z m63 -83 c0 -17 -24 -28 -45 -20 -29 12 -14 34
22 34 13 0 23 -6 23 -14z"/>
<path d="M3067 3433 c-4 -3 -7 -35 -7 -70 0 -49 3 -63 15 -63 11 0 15 11 15
36 0 42 15 74 35 74 8 0 15 7 15 15 0 17 -26 20 -35 5 -5 -8 -11 -8 -19 -1 -7
6 -16 8 -19 4z"/>
<path d="M3201 3414 c-12 -15 -21 -37 -21 -50 0 -52 71 -83 115 -51 23 18 3
32 -24 18 -15 -8 -24 -6 -43 9 l-23 19 53 1 c48 0 52 2 52 23 0 56 -73 76
-109 31z m63 0 c30 -12 18 -34 -19 -34 -40 0 -41 2 -19 24 18 18 17 18 38 10z"/>
<path d="M240 3111 c0 -6 4 -13 10 -16 6 -3 7 1 4 9 -7 18 -14 21 -14 7z"/>
<path d="M1760 3050 c0 -29 4 -40 15 -40 11 0 15 11 15 40 0 29 -4 40 -15 40
-11 0 -15 -11 -15 -40z"/>
<path d="M2160 3063 c0 -22 2 -25 10 -13 13 20 13 40 0 40 -5 0 -10 -12 -10
-27z"/>
<path d="M2160 2989 c0 -11 5 -17 10 -14 6 3 10 13 10 21 0 8 -4 14 -10 14 -5
0 -10 -9 -10 -21z"/>
<path d="M1287 2733 c-13 -12 -7 -43 8 -43 8 0 15 6 15 13 0 18 -15 38 -23 30z"/>
<path d="M651 2264 c0 -11 3 -14 6 -6 3 7 2 16 -1 19 -3 4 -6 -2 -5 -13z"/>
<path d="M2380 1880 c0 -5 5 -10 10 -10 6 0 10 5 10 10 0 6 -4 10 -10 10 -5 0
-10 -4 -10 -10z"/>
<path d="M2553 1605 c0 -22 2 -30 4 -17 2 12 2 30 0 40 -3 9 -5 -1 -4 -23z"/>
<path d="M3485 1361 c-11 -5 -26 -6 -32 -4 -7 3 -13 -2 -13 -11 0 -10 -9 -16
-23 -16 -13 0 -42 -9 -64 -20 -43 -21 -73 -18 -73 6 0 8 -4 14 -10 14 -5 0
-10 -8 -10 -19 0 -10 -7 -24 -15 -31 -8 -7 -15 -18 -15 -24 -1 -27 -39 -56
-74 -56 -25 0 -36 -4 -36 -15 0 -8 7 -15 15 -15 11 0 15 -11 15 -40 0 -29 -4
-40 -15 -40 -12 0 -15 -16 -15 -80 0 -47 4 -80 10 -80 6 0 10 -18 10 -40 0
-22 -4 -40 -10 -40 -5 0 -10 -11 -10 -25 0 -25 -1 -25 -80 -25 -47 0 -80 4
-80 10 0 6 -33 10 -80 10 l-80 0 0 30 c0 29 -1 30 -49 30 -41 0 -53 4 -69 25
-38 48 -122 24 -122 -33 0 -12 -4 -22 -8 -22 -5 0 -16 -24 -25 -54 -10 -30
-24 -59 -32 -66 -8 -7 -15 -25 -15 -41 0 -16 -4 -29 -8 -29 -5 0 -16 -18 -26
-40 -10 -23 -29 -48 -42 -56 -13 -9 -24 -24 -24 -33 0 -21 -143 -161 -165
-161 -9 0 -29 -8 -43 -18 -15 -10 -42 -24 -59 -31 -20 -8 -33 -20 -33 -31 0
-11 -14 -24 -40 -34 -22 -9 -40 -23 -40 -31 0 -11 -11 -15 -40 -15 -36 0 -40
-3 -40 -24 0 -14 -11 -33 -25 -44 -17 -14 -25 -30 -25 -50 0 -35 -15 -50 -27
-28 -7 13 -11 13 -28 0 -16 -12 -17 -16 -6 -24 8 -4 404 -9 883 -10 l868 -1 0
671 0 670 -27 -1 c-16 0 -37 -4 -48 -8z m-415 -595 c0 -2 -7 -9 -15 -16 -12
-10 -15 -10 -15 4 0 9 7 16 15 16 8 0 15 -2 15 -4z"/>
<path d="M3010 1166 c0 -2 7 -9 15 -16 12 -10 15 -10 15 4 0 9 -7 16 -15 16
-8 0 -15 -2 -15 -4z"/>
<path d="M3091 928 c2 -86 6 -76 11 25 2 31 0 57 -4 57 -5 0 -7 -37 -7 -82z"/>
<path d="M825 949 c-22 -11 -59 -21 -83 -21 -25 -1 -46 -7 -50 -15 -5 -7 -36
-18 -70 -24 -41 -7 -62 -16 -62 -25 0 -8 -8 -14 -18 -14 -10 0 -24 -6 -30 -12
-10 -10 -17 -10 -33 0 -12 8 -18 9 -15 4 8 -13 -85 -41 -161 -48 -35 -4 -63
-11 -63 -15 0 -5 -18 -9 -41 -9 -24 0 -38 4 -34 10 4 6 -12 10 -39 10 -25 0
-46 -4 -46 -10 0 -5 -18 -10 -40 -10 l-40 0 0 -370 0 -371 685 1 c429 1 683 5
680 11 -4 5 -12 9 -19 9 -13 0 -26 80 -26 160 0 50 -20 106 -31 88 -5 -8 -9 9
-9 45 0 31 -4 57 -9 57 -10 0 -51 119 -51 148 0 11 -10 27 -22 35 -20 14 -21
18 -8 26 9 7 10 11 3 11 -11 0 -24 27 -29 60 -6 48 -18 82 -30 87 -6 2 -15 15
-18 29 -4 13 -11 24 -16 24 -6 0 -10 7 -10 15 0 8 -4 15 -10 15 -5 0 -10 6
-10 13 0 19 -90 90 -90 71 0 -5 -4 -2 -10 6 -5 8 -19 15 -32 16 -13 2 -34 5
-48 8 -15 3 -42 -3 -65 -15z"/>
<path d="M353 3 c197 -2 517 -2 710 0 194 1 33 2 -358 2 -390 0 -549 -1 -352
-2z"/>
<path d="M2208 3 c248 -2 656 -2 905 0 248 1 45 2 -453 2 -498 0 -701 -1 -452
-2z"/>
</g>
</svg>
